<svg id="Layer_1" data-name="Layer 1" xmlns="http://www.w3.org/2000/svg" viewBox="0 0 128 128"><defs><style>.cls-1{font-size:16.69px;font-family:Century Gothic;}.cls-1,.cls-4{fill:#3a62ae;}.cls-2{fill:#80a7d8;}.cls-3{fill:#ffd57f;}</style></defs><title>hy web logo</title><text class="cls-1" transform="translate(21.32 113.92)">Hypernova</text><polygon class="cls-2" points="70.85 58.73 32.9 77.75 32.94 29.99 70.81 10.84 70.85 58.73"/><path class="cls-2" d="M30.86,81.05l0-52.31L72.84,7.52l0,52.47ZM35,31.25l0,43.2,33.87-17,0-43.32Z"/><polygon class="cls-3" points="59.39 95.61 32.76 80.26 32.76 48.4 59.26 62.12 59.39 95.61"/><path class="cls-3" d="M61.44,99.15L30.72,81.44V45L61.29,60.88ZM34.8,79.08l22.54,13L57.23,63.36,34.8,51.75V79.08Z"/><polygon class="cls-4" points="100.83 76.72 63.13 95.68 63.13 48.4 100.83 29.04 100.83 76.72"/><path class="cls-4" d="M61.09,99V47.15L102.87,25.7V78Zm4.08-49.34V92.37l33.63-16.9V32.37Z"/></svg>