<svg width="49" height="80" viewBox="0 0 49 80" fill="none" xmlns="http://www.w3.org/2000/svg">
<g clip-path="url(#clip0_769_226)">
<path d="M20.9803 28.7426C20.9803 28.7426 21.7524 31.9071 18.8342 32.9543L24.7842 42.755L31.2792 33.421C30.3103 33.1241 29.4796 32.4888 28.9379 31.6305C28.3962 30.7721 28.1795 29.7475 28.3269 28.7426H20.9803Z" fill="#B37C49"/>
<path d="M20.9804 28.7426C21.1936 29.6016 21.13 30.5061 20.7987 31.3266C20.6207 31.7375 20.3529 32.1031 20.0152 32.3965C19.8499 32.5455 19.6712 32.6788 19.4815 32.7949C19.2885 32.9088 19.0841 32.9885 18.8797 33.0909L18.9478 32.886C20.9917 36.1187 23.0242 39.3515 25.0113 42.6184H24.5685C26.7032 39.4881 28.8947 36.3919 31.0749 33.2844L31.2225 33.6714C30.7086 33.4996 30.2311 33.2332 29.8145 32.886C29.3983 32.5755 29.0439 32.1894 28.7698 31.7477C28.5088 31.2928 28.3283 30.796 28.2361 30.2793C28.1477 29.7722 28.1211 29.2562 28.1567 28.7426L28.327 28.9248C25.8743 28.902 23.433 28.8109 20.9804 28.7426ZM20.9804 28.7426C23.433 28.6857 25.8743 28.5947 28.327 28.5719H28.5541V28.754C28.5382 29.2392 28.5801 29.7245 28.679 30.1997C28.859 31.1397 29.3862 31.9771 30.1551 32.5445C30.5253 32.8286 30.945 33.0409 31.3928 33.1706L31.7335 33.273L31.5404 33.5576C29.3944 36.6765 27.2596 39.8182 25.0681 42.9029L24.8297 43.233L24.6253 42.8916C22.5814 39.6247 20.6056 36.3009 18.7094 33.034L18.6299 32.886H18.7889C18.9819 32.7949 19.1749 32.738 19.3566 32.6356C19.9221 32.3437 20.3826 31.8821 20.6738 31.3152C21.0484 30.5128 21.1559 29.6109 20.9804 28.7426Z" fill="#010101"/>
<path d="M41.7371 74.0351C42.1458 58.0991 42.3502 63.3238 41.8279 56.5055C41.6349 54.0468 44.8256 53.25 44.7575 51.2466C44.1557 34.3203 30.5979 32.647 30.5979 32.647C24.7274 42.1517 18.6071 32.647 18.6071 32.647C0.461908 40.0914 0.575457 74.0351 0.575457 74.0351C0.575457 74.0351 2.15379 70.6885 7.7177 72.783C13.2816 74.8774 29.2921 85.9074 41.7825 74.0351" fill="white"/>
<path d="M41.7371 74.0351L41.8733 67.8884L42.0437 61.7302C42.0473 60.7074 41.9943 59.6851 41.8847 58.6682L41.7484 57.1315C41.6468 56.6129 41.6468 56.0794 41.7484 55.5607C42.1641 54.5942 42.8116 53.7457 43.6334 53.0906C43.9807 52.766 44.2655 52.3802 44.4736 51.9523C44.5715 51.4678 44.5715 50.9685 44.4736 50.4839C44.4149 49.4643 44.2935 48.4493 44.1103 47.4447C43.9311 46.4437 43.6883 45.4552 43.3835 44.4852C43.0852 43.5174 42.7054 42.5768 42.2481 41.6736C41.7986 40.7637 41.2584 39.9018 40.6357 39.1011C39.3898 37.4786 37.8487 36.1075 36.0937 35.0601C35.2272 34.5347 34.3151 34.0889 33.3685 33.7283C32.4655 33.3502 31.5255 33.0679 30.5638 32.886L30.7796 32.7836C30.4276 33.3299 30.0642 33.9219 29.6441 34.3772C29.2338 34.8814 28.7777 35.3463 28.2815 35.7659C28.0288 35.9756 27.7633 36.1695 27.4867 36.3464C27.1993 36.517 26.8994 36.6654 26.5896 36.7903C25.9689 37.0365 25.3035 37.149 24.6366 37.1204C23.3114 37.013 22.051 36.5004 21.0257 35.652C20.0044 34.8449 19.1089 33.8896 18.3686 32.8177L18.6752 32.9088C15.0775 34.4781 11.9926 37.0301 9.77297 40.2735C7.52293 43.5014 5.7627 47.0458 4.54971 50.7913C3.32557 54.5297 2.41403 58.3638 1.82452 62.2538C1.2062 66.1523 0.853383 70.0885 0.768517 74.0351L0.405159 73.9554C0.908463 73.0924 1.72033 72.4535 2.67614 72.1683C3.59715 71.8946 4.56914 71.8401 5.51487 72.009C7.35784 72.3849 9.13141 73.0453 10.7722 73.9668C14.0473 75.6779 17.4672 77.0949 20.9916 78.2012C21.8887 78.4403 22.7857 78.6793 23.6941 78.8501C24.5978 79.0383 25.5115 79.1751 26.4306 79.2598C27.3517 79.3432 28.277 79.3699 29.2012 79.3395C30.1261 79.3117 31.048 79.2204 31.9605 79.0663C32.8791 78.914 33.786 78.6972 34.6743 78.4175C35.5513 78.1072 36.4019 77.7265 37.2178 77.2792C38.0426 76.8468 38.8357 76.3561 39.591 75.8108C40.3369 75.257 41.0532 74.6643 41.7371 74.0351C41.0638 74.6779 40.3549 75.2821 39.6137 75.845C38.8619 76.3998 38.0728 76.9018 37.2519 77.3475C36.4333 77.7894 35.5831 78.1699 34.7084 78.4858C33.811 78.7944 32.8927 79.0378 31.9605 79.2143C31.0608 79.3893 30.1503 79.5033 29.2353 79.5558C28.3053 79.6185 27.3721 79.6185 26.442 79.5558C25.5085 79.4817 24.5798 79.3563 23.66 79.1802C22.7516 79.0208 21.8433 78.8045 20.9349 78.5541C17.3747 77.4594 13.9172 76.0539 10.6019 74.3538C8.99124 73.4557 7.25261 72.8107 5.44674 72.4415C4.5564 72.2846 3.64156 72.3432 2.77834 72.6122C1.92981 72.8719 1.20886 73.4404 0.757161 74.2059L0.371094 74.8774V74.1148C0.431275 70.1466 0.76515 66.1873 1.37033 62.2652C1.94605 58.3326 2.85392 54.456 4.08415 50.6774C5.28755 46.8743 7.05609 43.2748 9.33013 40.0003C11.6191 36.6848 14.7954 34.0846 18.4936 32.499L18.6866 32.4193L18.8001 32.5901C19.5011 33.6241 20.3549 34.5453 21.3323 35.3219C22.2795 36.1124 23.4434 36.5966 24.6706 36.7107C25.2873 36.7033 25.8952 36.5636 26.4534 36.3009C26.7375 36.1936 27.0112 36.0602 27.2709 35.9025C27.5305 35.7383 27.7807 35.5597 28.0203 35.3675C28.4953 34.9603 28.9323 34.5107 29.3262 34.0243C29.7345 33.5349 30.1137 33.0218 30.4616 32.4876L30.5411 32.3738H30.6774C31.7045 32.5431 32.7098 32.8256 33.6751 33.2161C36.5932 34.3384 39.1413 36.2541 41.0331 38.7482C41.6637 39.5722 42.2114 40.4568 42.6682 41.389C43.1208 42.314 43.5004 43.2731 43.8037 44.2575C44.1089 45.242 44.3479 46.246 44.519 47.2626C44.7035 48.2782 44.8211 49.3049 44.871 50.336V51.11C44.8902 51.3881 44.8515 51.6672 44.7575 51.9296C44.5428 52.4207 44.2297 52.8624 43.8377 53.2272C43.0504 53.8756 42.4342 54.7083 42.0437 55.6518C41.9407 56.1396 41.9407 56.6437 42.0437 57.1315L42.1459 58.6682C42.2444 59.6896 42.2861 60.7156 42.2708 61.7416L41.9982 67.8997L41.7371 74.0351Z" fill="#010101"/>
<path d="M20.3672 11.5317C17.9162 12.585 15.7405 14.1907 14.0095 16.2242C12.2784 18.2577 11.0385 20.664 10.3862 23.2561C10.3862 23.2561 11.4422 32.2372 24.0121 31.9981C38.0355 31.7477 38.5124 22.6414 38.5124 22.6414C38.5124 22.6414 33.4027 10.9626 20.3672 11.5317Z" fill="#B37C49"/>
<path d="M20.3671 11.5317C19.1548 12.0727 18.0112 12.7567 16.9606 13.5693C16.4383 13.9677 15.9387 14.4002 15.4504 14.8555L14.7578 15.5613C14.5193 15.7889 14.3263 16.0621 14.1105 16.3125C13.8842 16.5522 13.679 16.8112 13.4974 17.0866C13.3043 17.3598 13.1 17.6102 12.9296 17.8948L12.4073 18.7371C12.2256 19.0103 12.1007 19.3176 11.9418 19.6022C11.7828 19.8868 11.6352 20.1827 11.5216 20.5014L11.1696 21.4121C10.9312 22.0267 10.7949 22.6756 10.5905 23.3016V23.2333C10.8755 24.7026 11.5105 26.0812 12.4414 27.2515C12.8909 27.8425 13.4094 28.3775 13.9856 28.8451C14.2804 29.0818 14.5958 29.2913 14.9281 29.4711C15.2297 29.6932 15.5531 29.8839 15.8933 30.0403C16.2339 30.1996 16.5519 30.3932 16.9039 30.5298L17.9485 30.9054C18.6674 31.1254 19.3994 31.3003 20.14 31.429C20.8923 31.5466 21.6504 31.6227 22.411 31.6567C23.1718 31.6567 23.8985 31.7363 24.682 31.6567C25.4655 31.577 26.2149 31.5997 26.953 31.4859C27.691 31.3721 28.4405 31.3038 29.1672 31.0989C29.898 30.9476 30.6156 30.7382 31.3133 30.4728C32.0213 30.2289 32.7054 29.9202 33.3571 29.5508C33.9706 29.2021 34.5487 28.7941 35.0831 28.3329C35.3761 28.1015 35.6461 27.8423 35.8893 27.5588C36.1523 27.2959 36.3917 27.0102 36.6047 26.7051C37.06 26.1086 37.4413 25.4588 37.7401 24.77C38.0124 24.0884 38.1882 23.3719 38.2625 22.6414V22.7439C37.8707 21.9188 37.4191 21.1237 36.9112 20.3648C36.3949 19.5716 35.8298 18.8113 35.2194 18.0883L34.2655 17.0638C33.9362 16.7337 33.5842 16.4264 33.2436 16.1076C32.9029 15.7889 32.5169 15.5271 32.1081 15.2312C31.7441 14.9454 31.3651 14.6794 30.9726 14.4344C30.5871 14.1732 30.185 13.9375 29.769 13.7286C29.3489 13.5123 28.9401 13.2847 28.5199 13.0912L27.2255 12.579C26.7877 12.4148 26.3402 12.278 25.8856 12.1692C25.4384 12.0348 24.9833 11.9283 24.523 11.8504L23.1264 11.6456C22.6669 11.589 22.2039 11.5662 21.7411 11.5773L20.3671 11.5317ZM20.3671 11.5317H21.7411C22.2098 11.4976 22.6803 11.4976 23.1491 11.5317L24.5571 11.6911C25.0205 11.7575 25.4793 11.8525 25.931 11.9757C26.3944 12.0646 26.85 12.1902 27.2936 12.3513L28.6335 12.8294C29.065 13.0115 29.4851 13.2278 29.9166 13.4327C30.3414 13.6389 30.7511 13.8747 31.1429 14.1384C31.5406 14.3754 31.9202 14.6418 32.2784 14.9352C32.6531 15.2198 33.0506 15.4816 33.4139 15.8003C33.7773 16.119 34.1293 16.4264 34.4699 16.7565L35.4578 17.7809C36.0862 18.5065 36.6737 19.2665 37.2178 20.0575C37.8067 20.8382 38.3272 21.6685 38.7734 22.539V22.6414C38.6834 23.4241 38.4846 24.1904 38.183 24.918C37.8922 25.6427 37.5107 26.3274 37.0475 26.9555C36.8267 27.2788 36.5799 27.5833 36.3094 27.8662C36.0492 28.1556 35.7684 28.4257 35.4692 28.6743C34.8803 29.189 34.2412 29.6428 33.5615 30.0289C32.8874 30.4133 32.1807 30.7371 31.4495 30.9965C30.7089 31.2726 29.9501 31.497 29.1785 31.668C28.4286 31.8359 27.6706 31.965 26.9075 32.0551C26.1468 32.1689 25.386 32.1575 24.6366 32.2258C23.8871 32.2941 23.0809 32.2258 22.3656 32.2258C21.6048 32.1816 20.8468 32.098 20.0946 31.9754C19.3269 31.8413 18.5684 31.6588 17.8236 31.429L16.6881 31.0306C16.3361 30.894 15.9955 30.6891 15.6435 30.5184C15.2916 30.3504 14.9569 30.1483 14.6442 29.9151C14.3122 29.7144 14.0004 29.4818 13.7131 29.2207C13.1082 28.7282 12.5666 28.1623 12.1007 27.5361C11.6453 26.911 11.2643 26.2349 10.9652 25.5213C10.6421 24.7947 10.4131 24.0296 10.2839 23.2447V23.2106C10.4997 22.5731 10.6473 21.9129 10.8971 21.2982L11.2832 20.3648C11.4147 20.0537 11.5625 19.7497 11.726 19.4542C11.8708 19.1523 12.0339 18.8596 12.2143 18.5777L12.748 17.724C12.941 17.4508 13.1567 17.189 13.3498 16.9272C13.5428 16.6654 13.7699 16.4036 13.997 16.1532C14.2241 15.9028 14.4285 15.6409 14.6783 15.4247L15.405 14.7303C15.8797 14.3062 16.3762 13.9073 16.8925 13.5351C17.9613 12.7223 19.1288 12.0491 20.3671 11.5317Z" fill="#010101"/>
<path d="M19.851 19.3263C19.9054 18.2716 19.3301 17.3845 18.5661 17.3448C17.802 17.3052 17.1385 18.1282 17.0841 19.1829C17.0297 20.2376 17.605 21.1248 18.369 21.1644C19.1331 21.204 19.7966 20.3811 19.851 19.3263Z" fill="#010101"/>
<path d="M19.4223 18.7298C19.4421 18.3469 19.2347 18.0248 18.9592 18.0106C18.6836 17.9963 18.4442 18.2952 18.4244 18.6781C18.4047 19.0611 18.6121 19.3831 18.8876 19.3974C19.1632 19.4117 19.4026 19.1128 19.4223 18.7298Z" fill="white"/>
<path d="M26.283 20.1258C26.4404 19.8534 26.6485 19.6138 26.8961 19.42C27.1549 19.2165 27.4418 19.0517 27.7477 18.9306C28.1175 18.7978 28.5112 18.7454 28.9028 18.7768C29.2943 18.8082 29.6747 18.9227 30.0187 19.1127C30.3038 19.2669 30.5673 19.4583 30.8022 19.6819C30.9739 19.8301 31.1231 20.0026 31.2451 20.1941L31.404 20.399L31.1769 20.2738C31.0407 20.1941 30.8476 20.0575 30.6205 19.9437L30.2458 19.7388C30.0976 19.6938 29.9533 19.6366 29.8143 19.568C29.5107 19.4559 29.194 19.3832 28.8719 19.3518C28.5523 19.3279 28.231 19.3509 27.9181 19.42C27.6307 19.473 27.3518 19.5649 27.0892 19.6932C26.8084 19.8137 26.5387 19.9584 26.283 20.1258Z" fill="#010101"/>
<path d="M32.6757 23.8935C32.5967 24.1034 32.5057 24.3087 32.4032 24.5082C32.1499 25.0566 31.8377 25.5757 31.4721 26.0563C30.9594 26.7185 30.3597 27.3081 29.6894 27.8092C29.2974 28.0918 28.8791 28.3358 28.4404 28.5377C27.9937 28.7592 27.5257 28.9347 27.0437 29.0614C26.5567 29.1724 26.0639 29.256 25.5676 29.3118C25.0793 29.3118 24.591 29.3118 24.1255 29.3118L22.8083 29.0841C22.3995 28.9703 22.0135 28.8337 21.6728 28.7199C21.3499 28.6285 21.0378 28.5026 20.7417 28.3442L20.0604 28.0027L19.47 27.6613L20.1172 27.8661C20.6489 28.0535 21.1911 28.2093 21.741 28.3328C22.093 28.4125 22.4677 28.515 22.8764 28.5947L24.1482 28.7312C24.591 28.7312 25.0452 28.7312 25.5108 28.7312C25.9763 28.7312 26.4419 28.606 26.8847 28.4808C27.3378 28.3682 27.7789 28.2119 28.2019 28.0141C28.5953 27.8252 28.9748 27.6084 29.3374 27.3653C29.6894 27.1035 30.0528 26.8531 30.348 26.5913C30.6433 26.3422 30.9203 26.0721 31.1769 25.7831C31.5913 25.359 31.971 24.9022 32.3124 24.4171C32.5508 24.0984 32.6757 23.8935 32.6757 23.8935Z" fill="#010101"/>
<path d="M14.7463 12.1123C14.7463 12.1123 31.4608 7.44528 38.7733 22.8805C38.7733 22.8805 50.3099 13.2733 28.2019 2.23192C26.6718 1.46815 24.9689 1.1189 23.2625 1.21885C19.8387 1.5446 16.555 2.74373 13.7244 4.70201C13.7244 4.70201 3.02804 7.84368 10.2044 23.0398C10.2044 23.0398 14.0423 13.6148 20.6736 11.4521" fill="white"/>
<path d="M14.7464 12.1123C15.9236 11.8115 17.1238 11.6097 18.3345 11.509C18.925 11.4407 19.47 11.4407 20.1173 11.4065C20.7645 11.3724 21.3095 11.4065 21.9113 11.4065C22.5132 11.4065 23.0468 11.509 23.6941 11.5659C24.2897 11.6303 24.8811 11.7291 25.4654 11.8618C26.0537 11.9709 26.6341 12.1192 27.2027 12.3058L28.0657 12.5562L28.8946 12.8977C29.459 13.108 30.0057 13.363 30.5297 13.6603L32.0854 14.571L33.5274 15.7092C33.9821 16.086 34.4037 16.5011 34.7878 16.95C35.2248 17.3594 35.6309 17.8008 36.0028 18.2704L37.0815 19.7274C37.4431 20.2088 37.7587 20.7233 38.024 21.2641L38.8983 22.8463L38.6031 22.778C39.2492 22.181 39.8073 21.4949 40.2609 20.7405C40.7218 19.9887 41.0664 19.1712 41.2828 18.3159C41.4829 17.4624 41.5367 16.5809 41.4418 15.7092C41.4118 15.2708 41.324 14.8383 41.1806 14.423L41.0444 13.74C40.9649 13.5351 40.8627 13.3416 40.7719 13.1367C40.5675 12.7497 40.3972 12.3399 40.1814 11.9984L39.4093 10.917C38.8796 10.1906 38.2868 9.51258 37.6379 8.8909L37.1724 8.40143L36.65 7.98027L35.6054 7.13793C34.9125 6.55827 34.176 6.03309 33.4025 5.5671C32.6701 5.05793 31.9121 4.58682 31.1315 4.15562L28.7697 2.89212C28.0142 2.43265 27.2008 2.07662 26.3511 1.83351C25.5114 1.58204 24.6385 1.45923 23.7622 1.46926C21.9878 1.52043 20.2342 1.86662 18.573 2.49372C16.8995 3.12309 15.2971 3.92817 13.7926 4.89551C13.4016 5.03686 13.0219 5.20811 12.6571 5.40774C11.8586 5.81206 11.1302 6.34244 10.4996 6.97857C10.1871 7.27542 9.90556 7.60342 9.65938 7.9575C9.39595 8.31385 9.16777 8.69508 8.97808 9.09579C8.77613 9.46014 8.6052 9.84092 8.46711 10.2341C8.3215 10.6411 8.21132 11.0601 8.13782 11.4862C8.03505 11.9114 7.97795 12.3464 7.9675 12.7838C7.92762 13.2193 7.92762 13.6574 7.9675 14.0929L8.05834 15.4019C8.1081 15.8379 8.18011 16.271 8.27408 16.6996C8.36492 17.1321 8.42169 17.5646 8.5466 17.9858L8.90995 19.2265C9.02223 19.6514 9.15871 20.0695 9.31873 20.4787L10.3407 22.926H10.0682C10.6064 21.6911 11.2326 20.4966 11.9417 19.3518C12.641 18.2071 13.4228 17.1153 14.2808 16.0849C14.4852 15.8231 14.7237 15.584 14.9508 15.3336C15.1779 15.0832 15.405 14.8441 15.6434 14.6165C15.8819 14.3888 16.1203 14.1384 16.3815 13.9221L17.1536 13.2847C17.6841 12.8798 18.2461 12.5182 18.8342 12.2033C19.1203 12.0305 19.4203 11.882 19.7312 11.7594L20.6737 11.3951L19.7425 11.7708C19.4359 11.9036 19.1399 12.0596 18.8569 12.2375C18.2762 12.5741 17.722 12.9547 17.199 13.3758L16.4496 14.0246C16.1885 14.2409 15.9727 14.4913 15.7343 14.7189C15.4958 14.9466 15.2687 15.197 15.053 15.4474C14.8372 15.6979 14.6101 15.9483 14.4057 16.2101C13.5691 17.2532 12.8101 18.3565 12.1348 19.5111C11.4815 20.6705 10.8975 21.8678 10.3861 23.0967L10.2498 23.4154L10.1136 23.0967L9.06892 20.638C8.88724 20.2396 8.78505 19.7957 8.63744 19.3745L8.18324 18.0883C8.05834 17.6557 8.00156 17.2118 7.89937 16.7792C7.80165 16.3432 7.72586 15.9025 7.67227 15.4588L7.57007 14.1156C7.53035 13.665 7.53035 13.2117 7.57007 12.7611C7.57568 12.3121 7.63283 11.8652 7.7404 11.4293C7.83066 10.9837 7.95595 10.546 8.11511 10.1202C8.26081 9.69153 8.43532 9.2732 8.63744 8.86813C8.84129 8.46793 9.08071 8.08696 9.3528 7.72984C9.60029 7.35955 9.88572 7.0162 10.2044 6.70539C10.5206 6.37877 10.8623 6.07806 11.2264 5.80614C11.5863 5.53204 11.9658 5.28475 12.3619 5.06625C12.7649 4.84369 13.1866 4.65706 13.6222 4.50849H13.5655C15.0859 3.5154 16.7074 2.68738 18.4027 2.03841C20.1155 1.36922 21.9258 0.984741 23.7622 0.900118C24.6872 0.899476 25.6079 1.02586 26.4987 1.27575C27.3849 1.54342 28.2323 1.92609 29.0195 2.41404L31.4041 3.71169C32.1864 4.15642 32.9445 4.64278 33.675 5.1687C34.4584 5.62347 35.2062 6.13718 35.912 6.70539L36.9566 7.57048L37.4903 8.00303L37.9672 8.4925C38.6248 9.12474 39.2252 9.81421 39.7613 10.5528L40.5561 11.6911C40.7719 12.0895 40.9535 12.522 41.1579 12.9318C41.2488 13.1481 41.3623 13.353 41.4418 13.5579L41.6121 14.2295C41.7594 14.6716 41.851 15.1305 41.8847 15.5954C41.9807 16.5179 41.9154 17.4501 41.6916 18.3501C41.4471 19.2467 41.0639 20.0993 40.5561 20.8771C40.0821 21.6731 39.4885 22.3911 38.7961 23.0057L38.6258 23.165L38.5009 22.9374L37.6493 21.3779C37.393 20.8466 37.0889 20.3399 36.7409 19.864L35.6962 18.4297C35.3503 17.9661 34.9707 17.5286 34.5607 17.1207C34.1687 16.6746 33.7352 16.2667 33.2663 15.9028L31.8696 14.7645L30.348 13.8652C29.8358 13.5713 29.3003 13.32 28.747 13.1139L27.9294 12.7497L27.0892 12.4879C26.5278 12.2941 25.9552 12.1345 25.3746 12.0098C24.7955 11.9074 24.2391 11.7366 23.6259 11.6911C23.0128 11.6456 22.4904 11.5203 21.8546 11.4976C21.2187 11.4748 20.6623 11.4293 20.0718 11.4976C19.4814 11.5659 18.8796 11.4976 18.2891 11.5773C17.0956 11.6583 15.9107 11.8372 14.7464 12.1123Z" fill="#010101"/>
<path d="M36.968 11.2585C35.9829 10.3847 34.9313 9.58928 33.8227 8.87952C32.7013 8.14019 31.533 7.47478 30.3254 6.88752C29.6782 6.54604 28.9742 6.26146 28.2588 5.95413C27.5434 5.64679 26.8167 5.38498 26.056 5.19147C25.3099 4.96644 24.5517 4.78402 23.785 4.6451L22.6495 4.42882L21.514 4.31499L20.4466 4.18978H19.4247C18.7974 4.13767 18.167 4.13767 17.5398 4.18978L15.9387 4.30361L14.7237 4.51988L13.645 4.69063L14.7237 4.42882L15.9274 4.08733C16.4043 3.99627 16.9493 3.91659 17.5398 3.83691C18.1777 3.72749 18.823 3.6666 19.4701 3.65479H20.5261L21.6616 3.75723L22.7971 3.89383L23.9326 4.15563C24.7023 4.3198 25.4608 4.53271 26.2036 4.79307C26.9643 5.00935 27.6911 5.35083 28.4746 5.62402C29.258 5.89721 29.8826 6.27285 30.5411 6.62572C31.7233 7.25723 32.8614 7.96839 33.9476 8.75431C35.0343 9.50607 36.0595 10.3435 37.0135 11.2585H36.968Z" fill="#010101"/>
<path d="M19.209 7.74121C18.4475 7.74414 17.6877 7.81269 16.938 7.94611C16.1679 8.0839 15.4089 8.27792 14.667 8.52663C14.2469 8.65185 13.8608 8.85674 13.452 9.0161C13.0604 9.2126 12.6812 9.43309 12.3166 9.6763C11.9417 9.91431 11.5884 10.1847 11.2605 10.4845L10.7723 10.9284L10.3635 11.4065C10.0872 11.6964 9.83996 12.0128 9.62544 12.3513L9.29615 12.8066L9.05769 13.2733C8.92143 13.5806 8.73976 13.8424 8.63756 14.0929C8.53537 14.3433 8.45588 14.5823 8.3764 14.7645L8.11523 15.3564V14.6734C8.11523 14.4685 8.20607 14.2181 8.26285 13.9449C8.35038 13.6352 8.45656 13.3311 8.58079 13.0343L8.79653 12.522L9.09176 12.0098C9.29934 11.6328 9.55509 11.2846 9.85254 10.974L10.3067 10.4731L10.8404 10.0292C11.1959 9.73541 11.5758 9.47265 11.9759 9.24375C12.3804 9.00874 12.7974 8.79594 13.225 8.60631C13.6564 8.45834 14.0652 8.27621 14.4967 8.17376C16.0001 7.7362 17.5662 7.55534 19.1295 7.63877L19.209 7.74121Z" fill="#010101"/>
<path d="M38.8644 22.3796C38.8999 22.3138 38.9302 22.2453 38.9552 22.1747C39.0453 21.995 39.1212 21.8085 39.1823 21.617C39.2752 21.3103 39.351 20.9987 39.4094 20.6836C39.4781 20.2732 39.5198 19.8587 39.5343 19.4428C39.5233 18.9497 39.4701 18.4584 39.3753 17.9744C39.2551 17.4358 39.084 16.9098 38.8644 16.4036C38.6061 15.8686 38.2941 15.3613 37.9333 14.8897C37.7402 14.6506 37.5699 14.3888 37.3542 14.1612L36.6956 13.5351C36.2451 13.1188 35.7629 12.7382 35.2535 12.3968C34.7686 12.0345 34.2561 11.711 33.7206 11.4293C33.2428 11.1276 32.7415 10.865 32.2217 10.6439L30.8251 9.96089C30.3936 9.76738 29.9735 9.64217 29.6215 9.50557L28.6904 9.17547L27.8728 8.8909L28.6904 9.15271L29.6328 9.46004C29.9962 9.58526 30.4277 9.6877 30.8591 9.86983L32.2672 10.4731C32.7993 10.673 33.3123 10.9207 33.8001 11.213C34.3446 11.4851 34.8683 11.797 35.3671 12.1464C35.9011 12.4831 36.4063 12.8639 36.8773 13.2847L37.5699 13.9335C37.7864 14.1659 37.991 14.409 38.1831 14.662C38.5729 15.1437 38.9151 15.6621 39.205 16.2101C39.4579 16.7373 39.6521 17.2908 39.7841 17.8606C39.9085 18.3718 39.9808 18.8943 39.9999 19.4201C40.0025 19.8732 39.9721 20.3259 39.909 20.7746C39.8599 21.113 39.7878 21.4477 39.6933 21.7763C39.6024 22.0495 39.5343 22.2658 39.4662 22.4138L39.3753 22.63L38.8644 22.3796Z" fill="#010101"/>
<path d="M47.4373 45.5779C47.4373 45.5779 48.5728 52.8174 47.6531 54.798C42.7591 65.2361 38.3875 50.8027 38.3875 50.8027L47.4373 45.5779Z" fill="white"/>
<path d="M47.4371 45.5779C47.8535 47.6151 48.1116 49.6816 48.2093 51.7588C48.2376 52.2858 48.2376 52.814 48.2093 53.341C48.1936 53.8923 48.0782 54.4361 47.8686 54.946C47.4387 55.918 46.877 56.8258 46.1995 57.6438C45.8417 58.0714 45.3963 58.4169 44.8936 58.6568C44.3578 58.9042 43.7469 58.9327 43.1904 58.7365C42.1817 58.2929 41.3362 57.5448 40.7718 56.5965C39.6458 54.828 38.7671 52.913 38.1602 50.9051L38.092 50.7116L38.2737 50.6091C39.7839 49.7327 41.3168 48.9017 42.8157 48.0594C44.3145 47.217 45.8929 46.3975 47.4371 45.5779ZM47.4371 45.5779C45.9497 46.4885 44.4962 47.4447 42.9974 48.3326C41.4985 49.2204 40.0224 50.1538 38.5122 51.0189L38.6257 50.7344C39.2343 52.6912 40.1052 54.5561 41.2146 56.2778C41.7139 57.1126 42.4435 57.7846 43.3153 58.2129C43.7389 58.3781 44.2089 58.3781 44.6325 58.2129C45.0689 58.0102 45.4563 57.7151 45.768 57.3478C46.4236 56.5707 46.9665 55.7046 47.3804 54.7753C47.5602 54.3207 47.6675 53.8405 47.6983 53.3524C47.7822 52.8286 47.8352 52.3003 47.8573 51.7702C47.8573 50.7344 47.8005 49.7099 47.7437 48.6741C47.687 47.6382 47.5507 46.6024 47.4371 45.5779Z" fill="#010101"/>
<path d="M47.1988 34.639C47.1988 34.639 47.4941 31.4518 44.7121 34.0015C43.9136 34.7273 43.3285 35.6584 43.0203 36.6937C42.712 37.7291 42.6924 38.8293 42.9634 39.8751C42.9634 39.8751 43.429 43.6542 41.0445 44.2689C38.6599 44.8836 36.3435 45.0202 36.0597 47.2854C36.1078 47.5594 36.2191 47.8184 36.3847 48.0417C36.5502 48.265 36.7656 48.4464 37.0135 48.5716C37.0135 48.5716 35.6509 49.7896 36.0597 50.7799C36.2167 51.29 36.5565 51.7238 37.0135 51.9979C37.0135 51.9979 36.1164 52.4646 36.3435 53.2158C36.4155 53.4399 36.5364 53.6451 36.6974 53.8165C36.8585 53.9878 37.0557 54.1209 37.2746 54.2061C37.2249 54.5643 37.3154 54.9278 37.527 55.2206C37.7387 55.5134 38.0551 55.7128 38.4101 55.777C39.2969 56.0317 40.213 56.1694 41.1353 56.1868C41.1353 56.1868 46.5289 57.4616 46.6424 54.7867C46.7333 54.229 46.934 53.695 47.2329 53.2158C47.6303 52.7491 47.2329 50.9393 47.2329 50.9393C47.2329 50.9393 46.6652 50.1311 47.4032 49.7213C48.1413 49.3115 47.108 47.8659 47.108 47.8659C47.0082 47.535 46.9819 47.1862 47.031 46.844C47.08 46.5019 47.2032 46.1746 47.3919 45.8853C47.4389 44.5106 47.0709 43.1538 46.3359 41.9923C45.0528 39.7157 47.1988 34.639 47.1988 34.639Z" fill="#B37C49" stroke="#010101" stroke-width="0.5" stroke-miterlimit="10"/>
<path d="M40.8856 54.9688C41.2943 54.4793 40.0794 53.3752 41.3965 52.271C41.4647 52.2141 41.3057 52.1003 41.2376 52.0206C39.4208 49.8465 42.1232 49.6757 41.4874 49.0611C40.9864 48.6649 40.612 48.1306 40.4103 47.5238C40.2085 46.9171 40.1882 46.2644 40.3519 45.6462C40.3813 45.5483 40.385 45.4444 40.3625 45.3447C40.34 45.245 40.2921 45.1528 40.2235 45.0771C40.1549 45.0015 40.0679 44.9449 39.971 44.913C39.8741 44.8811 39.7706 44.8748 39.6706 44.8949C38.0355 45.2478 36.582 45.612 36.2641 47.1146C36.233 47.2636 36.2615 47.419 36.3436 47.5471C36.4985 47.7778 36.6816 47.9881 36.8886 48.1732C36.9446 48.2292 36.989 48.2958 37.0193 48.369C37.0496 48.4422 37.0652 48.5208 37.0652 48.6001C37.0652 48.6793 37.0496 48.7579 37.0193 48.8311C36.989 48.9043 36.9446 48.9709 36.8886 49.0269C36.4798 49.4708 36.0029 50.1652 36.2527 50.7457C36.3852 51.0733 36.5866 51.3684 36.8432 51.6108C36.9006 51.6661 36.9462 51.7323 36.9774 51.8057C37.0085 51.879 37.0246 51.9579 37.0246 52.0377C37.0246 52.1174 37.0085 52.1963 36.9774 52.2697C36.9462 52.343 36.9006 52.4093 36.8432 52.4645C36.7271 52.5626 36.641 52.6916 36.5948 52.8366C36.5486 52.9816 36.5442 53.1367 36.582 53.2841C36.6248 53.4328 36.7 53.5702 36.8021 53.6863C36.9042 53.8025 37.0307 53.8945 37.1725 53.9557C37.2758 54.004 37.363 54.0814 37.4235 54.1783C37.4839 54.2753 37.5151 54.3877 37.5131 54.5021C37.5131 54.9119 37.7402 55.5151 38.8417 55.8225C39.2134 55.912 39.5949 55.954 39.9772 55.9477C40.1165 55.9526 40.2529 55.907 40.3614 55.8191C40.4699 55.7313 40.5431 55.6072 40.5676 55.4696C40.6207 55.2743 40.7315 55.0997 40.8856 54.9688Z" fill="#8D5D30"/>
<path d="M43.1225 41.9923C43.1225 41.9923 42.7591 44.1551 41.1921 44.4852C42.2813 44.4379 43.3503 44.1748 44.3375 43.7111L43.1225 41.9923Z" fill="#8D5D30"/>
<path d="M36.9679 48.2301L37.2632 48.344C37.5223 48.4482 37.7877 48.5356 38.058 48.6058C38.8864 48.8124 39.7365 48.9194 40.5902 48.9245C41.4576 48.9249 42.3236 48.8525 43.1791 48.7082C43.5618 48.6454 43.9409 48.5618 44.3146 48.4578C43.9423 48.5915 43.5633 48.7055 43.1791 48.7993C42.3288 49.0071 41.4629 49.1441 40.5902 49.2091C39.706 49.2724 38.8174 49.2266 37.9445 49.0725C37.6522 49.0251 37.3638 48.9567 37.0815 48.8676L36.7749 48.822L36.9679 48.2301Z" fill="#010101"/>
<path d="M36.9679 51.7133C37.3371 51.8563 37.7167 51.9705 38.1034 52.0548C38.9978 52.251 39.9146 52.3237 40.8286 52.2711C41.7544 52.2263 42.6687 52.0461 43.5424 51.7361C43.8332 51.6403 44.1176 51.5262 44.3941 51.3946L44.712 51.2466L44.4054 51.4173C44.1377 51.5675 43.8609 51.7005 43.5765 51.8157C42.7105 52.1988 41.7918 52.4483 40.8513 52.5556C39.9093 52.6823 38.9546 52.6823 38.0126 52.5556C37.5925 52.4815 37.1787 52.375 36.7749 52.2369L36.9679 51.7133Z" fill="#010101"/>
<path d="M37.3541 53.9785C37.6637 54.1417 37.9915 54.2678 38.3306 54.3541C39.1028 54.5675 39.9034 54.6597 40.7038 54.6273C41.5118 54.5923 42.3126 54.4585 43.0883 54.2289C43.7242 54.0354 44.1443 53.8647 44.1443 53.8647C43.8079 54.0307 43.463 54.1788 43.111 54.3086C42.3422 54.6139 41.5366 54.8168 40.7151 54.9119C39.8833 55.0146 39.0407 54.9877 38.217 54.8322C37.8267 54.7571 37.4458 54.6387 37.0815 54.4793L37.3541 53.9785Z" fill="#010101"/>
<path d="M9.96607 46.3064C9.96607 46.3064 8.61483 51.7361 8.20605 69.6299L9.96607 46.3064Z" fill="white"/>
<path d="M9.96609 46.3064C9.96609 46.3064 9.73899 47.7521 9.54595 49.9376C9.44376 51.0759 9.35292 52.3052 9.25073 53.6711C9.14853 55.0371 9.04634 56.4941 8.96685 57.9511L8.46724 65.9191C8.33098 68.1046 8.20607 69.573 8.20607 69.573C8.20607 69.573 8.11523 68.1729 8.11523 65.9647C8.11523 64.8264 8.11523 63.5856 8.18336 62.2083C8.25149 60.831 8.29691 59.374 8.3764 57.917C8.45588 56.46 8.59214 54.9916 8.7284 53.6256C8.86466 52.2597 9.0804 50.9848 9.25073 49.9603C9.42105 48.9359 9.60273 47.9683 9.72763 47.3423C9.85254 46.7162 9.96609 46.3064 9.96609 46.3064Z" fill="#010101"/>
</g>
<defs>
<clipPath id="clip0_769_226">
<rect width="47.8497" height="78.6101" fill="white" transform="translate(0.371094 0.934265)"/>
</clipPath>
</defs>
</svg>
