<svg width="80" height="79" viewBox="0 0 80 79" fill="none" xmlns="http://www.w3.org/2000/svg">
<g clip-path="url(#clip0_769_293)">
<path d="M40.2717 58.9843C50.9738 58.9843 59.6495 50.3095 59.6495 39.6086C59.6495 28.9077 50.9738 20.2328 40.2717 20.2328C29.5697 20.2328 20.894 28.9077 20.894 39.6086C20.894 50.3095 29.5697 58.9843 40.2717 58.9843Z" fill="#FFD400"/>
<path d="M78.0775 49.4992C77.8033 49.0244 77.2965 48.7321 76.7484 48.7321H73.7762C73.1472 46.9873 71.4779 45.7369 69.5228 45.7369C69.4407 45.7369 69.359 45.7392 69.2779 45.7435C69.5939 44.2484 69.7967 42.712 69.8772 41.1439H71.2013C71.8222 42.7749 73.4022 43.9367 75.2485 43.9367C77.6352 43.9367 79.5769 41.9951 79.5769 39.6086C79.5769 37.222 77.6352 35.2804 75.2485 35.2804C73.4022 35.2804 71.8222 36.4424 71.2013 38.0732H69.8772C69.7967 36.505 69.5939 34.9687 69.2779 33.4736C69.359 33.4779 69.4407 33.4802 69.5228 33.4802C71.4779 33.4802 73.1473 32.2298 73.7762 30.485H76.7484C77.2965 30.485 77.8033 30.1927 78.0775 29.718L79.2303 27.7238C79.6548 26.9898 79.4036 26.0506 78.6695 25.6262C77.9353 25.2019 76.9962 25.4531 76.5719 26.1871L75.8625 27.4143H73.7762C73.1472 25.6695 71.4779 24.419 69.5228 24.419C68.3236 24.419 67.2321 24.8894 66.422 25.6557C61.4232 16.3268 51.5762 9.96701 40.2719 9.96701C28.9675 9.96701 19.1205 16.3268 14.1219 25.6557C13.3118 24.8894 12.2202 24.419 11.0211 24.419C9.06594 24.419 7.39655 25.6695 6.76767 27.4143H4.68128L3.97179 26.1871C3.54757 25.4531 2.60855 25.2017 1.87419 25.6262C1.14014 26.0506 0.888954 26.9898 1.31348 27.7238L2.46622 29.718C2.74044 30.1927 3.24726 30.485 3.79538 30.485H6.76752C7.39655 32.2298 9.06579 33.4802 11.0209 33.4802C11.1031 33.4802 11.1847 33.4779 11.2658 33.4736C10.9498 34.9687 10.747 36.5051 10.6666 38.0732H9.34246C8.72156 36.4422 7.14153 35.2804 5.29527 35.2804C2.90856 35.2804 0.966797 37.222 0.966797 39.6086C0.966797 41.9951 2.90856 43.9367 5.29527 43.9367C7.14153 43.9367 8.72156 42.7748 9.34246 41.1439H10.6666C10.747 42.7121 10.9498 44.2484 11.2658 45.7435C11.1847 45.7392 11.1031 45.7369 11.0209 45.7369C9.06579 45.7369 7.3964 46.9873 6.76752 48.7321H3.79538C3.24726 48.7321 2.74044 49.0244 2.46622 49.4992L1.31348 51.4933C0.888954 52.2273 1.14014 53.1665 1.87419 53.5909C2.11616 53.7307 2.3804 53.7972 2.6411 53.7972C3.17141 53.7972 3.68729 53.5221 3.97179 53.03L4.68128 51.8028H6.76752C7.39655 53.5476 9.06579 54.7981 11.0209 54.7981C12.2202 54.7981 13.3117 54.3277 14.1217 53.5614C19.1205 62.8904 28.9675 69.2501 40.2719 69.2501C51.5762 69.2501 61.4232 62.8904 66.4219 53.5614C67.2319 54.3277 68.3236 54.7981 69.5227 54.7981C71.4778 54.7981 73.1472 53.5476 73.7761 51.8028H75.8623L76.5718 53.03C76.8563 53.5222 77.372 53.7972 77.9025 53.7972C78.1632 53.7972 78.4274 53.7307 78.6694 53.5909C79.4034 53.1665 79.6546 52.2273 79.2301 51.4933L78.0775 49.4992ZM69.5228 27.4897C70.3224 27.4897 70.9728 28.1447 70.9728 28.9497C70.9728 29.7547 70.3224 30.4095 69.5228 30.4095C68.7232 30.4095 68.0728 29.7545 68.0728 28.9497C68.0727 28.1445 68.7232 27.4897 69.5228 27.4897ZM9.57092 28.9497C9.57092 28.1447 10.2213 27.4897 11.0209 27.4897C11.8205 27.4897 12.4709 28.1447 12.4709 28.9497C12.4709 29.7547 11.8205 30.4095 11.0209 30.4095C10.2213 30.4095 9.57092 29.7545 9.57092 28.9497ZM11.0209 51.7274C10.2213 51.7274 9.57092 51.0724 9.57092 50.2674C9.57092 49.4625 10.2213 48.8076 11.0209 48.8076C11.8205 48.8076 12.4709 49.4626 12.4709 50.2674C12.4711 51.0726 11.8205 51.7274 11.0209 51.7274ZM75.2485 38.3511C75.9421 38.3511 76.5062 38.9152 76.5062 39.6086C76.5062 40.3019 75.942 40.866 75.2485 40.866C74.555 40.866 73.9907 40.3019 73.9907 39.6086C73.9907 38.9152 74.5548 38.3511 75.2485 38.3511ZM5.29527 40.866C4.60159 40.866 4.03751 40.3019 4.03751 39.6086C4.03751 38.9152 4.60175 38.3511 5.29527 38.3511C5.98879 38.3511 6.55303 38.9152 6.55303 39.6086C6.55303 40.3019 5.98894 40.866 5.29527 40.866ZM40.2719 66.1794C25.6189 66.1794 13.6981 54.2598 13.6981 39.6086C13.6981 24.9573 25.6189 13.0377 40.2719 13.0377C54.9248 13.0377 66.8456 24.9573 66.8456 39.6086C66.8456 54.2598 54.9248 66.1794 40.2719 66.1794ZM69.5228 51.7274C68.7232 51.7274 68.0728 51.0724 68.0728 50.2674C68.0728 49.4625 68.7232 48.8076 69.5228 48.8076C70.3224 48.8076 70.9728 49.4626 70.9728 50.2674C70.9728 51.0726 70.3224 51.7274 69.5228 51.7274Z" fill="#665AF0"/>
<path d="M45.2448 37.9255C46.1817 36.8587 46.7505 35.4611 46.7505 33.9331C46.7505 30.5933 44.0332 27.8762 40.6931 27.8762H40.653V26.8267C40.653 25.9788 39.9655 25.2914 39.1177 25.2914C38.2698 25.2914 37.5823 25.9788 37.5823 26.8267V27.8762H34.9843C34.1365 27.8762 33.449 28.5635 33.449 29.4115V49.0624C33.449 49.4708 33.6117 49.8623 33.901 50.1505C34.1889 50.437 34.5784 50.5977 34.9843 50.5977H34.9912C35.0161 50.5976 36.195 50.5923 37.5823 50.587V51.7372C37.5823 52.5852 38.2698 53.2726 39.1177 53.2726C39.9655 53.2726 40.653 52.5852 40.653 51.7372V50.5762C41.0814 50.575 41.4425 50.5744 41.69 50.5744C45.4534 50.5744 48.5153 47.5129 48.5153 43.7496C48.5153 41.2876 47.2048 39.126 45.2448 37.9255ZM40.6931 30.9467C42.3401 30.9467 43.6798 32.2863 43.6798 33.933C43.6798 35.5796 42.3399 36.9194 40.6931 36.9194C40.275 36.9194 39.4841 36.9217 38.6211 36.9248H36.5197V30.9467H40.6931ZM41.69 47.5035C40.7514 47.5035 38.1932 47.5133 36.5197 47.5202V40.0035C37.1585 40.0008 37.9161 39.9978 38.6247 39.9953H41.69C43.7603 39.9953 45.4445 41.6793 45.4445 43.7493C45.4445 45.8192 43.7604 47.5035 41.69 47.5035Z" fill="#665AF0"/>
</g>
<defs>
<clipPath id="clip0_769_293">
<rect width="78.6101" height="78.6101" fill="white" transform="translate(0.966797 0.303497)"/>
</clipPath>
</defs>
</svg>
