<svg width="79" height="79" viewBox="0 0 79 79" fill="none" xmlns="http://www.w3.org/2000/svg">
<g clip-path="url(#clip0_769_272)">
<path d="M11.321 17.1644H68.044V52.4222H11.321V17.1644Z" fill="#FFD400"/>
<path d="M77.2422 57.0211H75.7091V15.6314C75.7091 12.2504 72.9582 9.49963 69.5769 9.49963H9.78791C6.40661 9.49963 3.6557 12.2504 3.6557 15.6314V57.0211H2.12265C1.27595 57.0211 0.5896 57.7074 0.5896 58.554V63.1529C0.5896 66.5339 3.34051 69.2847 6.7218 69.2847H72.643C76.0243 69.2847 78.7752 66.5339 78.7752 63.1529V58.554C78.7752 57.7074 78.0889 57.0211 77.2422 57.0211ZM6.7218 15.6314C6.7218 13.9409 8.09726 12.5655 9.78791 12.5655H69.5769C71.2676 12.5655 72.643 13.9409 72.643 15.6314V57.0211H48.114C47.7075 57.0211 47.3175 57.1826 47.03 57.4701L44.4131 60.087H34.9517L32.3346 57.4701C32.0472 57.1826 31.6572 57.0211 31.2506 57.0211H6.7218V15.6314ZM75.7091 63.1529C75.7091 64.8434 74.3337 66.2188 72.643 66.2188H6.7218C5.03116 66.2188 3.6557 64.8434 3.6557 63.1529V60.087H30.6156L33.2327 62.7039C33.5202 62.9913 33.9102 63.1529 34.3167 63.1529H45.0481C45.4547 63.1529 45.8447 62.9913 46.1321 62.7039L48.7492 60.087H75.7091V63.1529Z" fill="#665AF0"/>
<path d="M40.6023 45.9838C44.3359 43.1839 47.9252 42.2663 51.5751 43.1788C52.5425 43.4207 53.4799 42.6875 53.4799 41.6916V25.2124C53.4799 24.5089 53.0012 23.8959 52.3186 23.7251C48.0916 22.6689 43.8455 23.5678 39.6825 26.3957C35.5193 23.5677 31.2731 22.6686 27.0463 23.7251C26.3638 23.8957 25.885 24.5089 25.885 25.2124V41.6916C25.885 42.6891 26.8239 43.4203 27.7898 43.1788C31.4397 42.2661 35.029 43.1839 38.7626 45.9838C39.3084 46.3931 40.0625 46.3887 40.6023 45.9838ZM50.4138 26.4709V39.8606C47.3362 39.5186 44.2574 40.2088 41.2155 41.9218V29.0609C44.335 26.8851 47.3608 26.0319 50.4138 26.4709ZM28.9511 39.8606V26.4708C32.0042 26.0325 35.0301 26.8851 38.1494 29.0609V41.9218C35.3114 40.3236 32.2269 39.4962 28.9511 39.8606Z" fill="#665AF0"/>
</g>
<defs>
<clipPath id="clip0_769_272">
<rect width="78.1856" height="78.1804" fill="white" transform="translate(0.5896 0.301941)"/>
</clipPath>
</defs>
</svg>
