<svg width="79" height="79" viewBox="0 0 79 79" fill="none" xmlns="http://www.w3.org/2000/svg">
<g clip-path="url(#clip0_769_186)">
<path d="M22.5051 24.0786H69.5501V36.4761H22.5051V24.0786Z" fill="#FFD400"/>
<path d="M22.8936 42.8861H30.8473V50.8393H22.8936V42.8861Z" fill="#FFD400"/>
<path d="M37.1326 42.8861H45.0863V50.8393H37.1326V42.8861Z" fill="#FFD400"/>
<path d="M32.9801 71.0925C32.7336 70.4912 32.1087 70.107 31.4608 70.1539C30.8277 70.1997 30.277 70.6474 30.1023 71.2571C29.9262 71.8714 30.1632 72.5451 30.6817 72.9175C31.1919 73.2841 31.8957 73.2947 32.4181 72.9464C33.0161 72.5475 33.2563 71.7555 32.9801 71.0925Z" fill="#665AF0"/>
<path d="M39.3515 9.41516H40.635C41.4783 9.41516 42.1621 8.73154 42.1621 7.8882C42.1621 7.04486 41.4783 6.36124 40.635 6.36124H39.3515C38.5081 6.36124 37.8245 7.04486 37.8245 7.8882C37.8245 8.73154 38.5081 9.41516 39.3515 9.41516Z" fill="#665AF0"/>
<path d="M22.5051 9.41516H32.8989C33.7423 9.41516 34.426 8.73154 34.426 7.8882C34.426 7.04486 33.7423 6.36124 32.8989 6.36124H22.5051C21.6617 6.36124 20.978 7.04486 20.978 7.8882C20.978 8.73154 21.6617 9.41516 22.5051 9.41516Z" fill="#665AF0"/>
<path d="M62.1876 42.5807H52.8303C51.987 42.5807 51.3032 43.2644 51.3032 44.1077C51.3032 44.9511 51.987 45.6347 52.8303 45.6347H62.1875C63.0307 45.6347 63.7146 44.9511 63.7146 44.1077C63.7146 43.2644 63.0309 42.5807 62.1876 42.5807Z" fill="#665AF0"/>
<path d="M62.1876 48.0908H52.8303C51.987 48.0908 51.3032 48.7744 51.3032 49.6177C51.3032 50.4611 51.987 51.1447 52.8303 51.1447H62.1875C63.0307 51.1447 63.7146 50.4611 63.7146 49.6177C63.7146 48.7744 63.0309 48.0908 62.1876 48.0908Z" fill="#665AF0"/>
<path d="M65.7762 14.5041H54.5292V10.5074C54.5291 5.06652 50.1023 0.640015 44.6611 0.640015H18.4791C13.0379 0.640015 8.61108 5.06652 8.61108 10.5074V68.9532C8.61108 74.3941 13.0379 78.8206 18.4791 78.8206H44.6611C50.1023 78.8206 54.5291 74.3941 54.5291 68.9532V59.0851H65.776C68.699 59.0851 71.0769 56.7073 71.0769 53.7845V19.8046C71.0771 16.882 68.699 14.5041 65.7762 14.5041ZM44.6611 75.7665H18.4791C14.7219 75.7665 11.6652 72.71 11.6652 68.953V67.5014H51.475V68.953C51.475 72.71 48.4184 75.7665 44.6611 75.7665ZM51.475 64.4476H11.6652V10.5074C11.6652 6.75045 14.7219 3.69394 18.4791 3.69394H44.6611C48.4182 3.69394 51.475 6.75045 51.475 10.5074V14.5042H24.0321V13.8986C24.0321 13.0553 23.3485 12.3717 22.5051 12.3717C21.6617 12.3717 20.978 13.0553 20.978 13.8986V59.5126C20.978 60.3559 21.6617 61.0396 22.5051 61.0396C23.3485 61.0396 24.0321 60.3559 24.0321 59.5126V59.0851H51.475V64.4476ZM68.023 53.7844C68.023 55.0232 67.0149 56.031 65.7762 56.031H24.0321V17.558H65.776C67.0148 17.558 68.0228 18.5658 68.0228 19.8046V53.7844H68.023Z" fill="#665AF0"/>
</g>
<defs>
<clipPath id="clip0_769_186">
<rect width="78.1856" height="78.1804" fill="white" transform="translate(0.751221 0.640015)"/>
</clipPath>
</defs>
</svg>
