
<svg xmlns="http://www.w3.org/2000/svg" width="18.49" height="18.49" viewBox="0 0 18.49 18.49">
  <g id="Group_115" data-name="Group 115" transform="translate(1.124 1.366)">
    <path id="Path_305" data-name="Path 305" d="M17.6,75.67h-.385V73.925a.448.448,0,0,0-.448-.448h-.639a.448.448,0,0,0-.448.448V75.67h-.745v-.941a.448.448,0,0,0-.448-.448h-.639a.448.448,0,0,0-.448.448v.941h-.755V75.3a.394.394,0,0,0-.394-.394h-.739a.394.394,0,0,0-.394.394v.372H7.422l-.388,0H6.323L5,77.037c-.348.352-.7.7-1.046,1.054-.187.193-.343.164-.523-.034q-.483-.532-1.015-1.014c-.22-.2-.235-.362-.01-.566a11.176,11.176,0,0,0,1-.99c.191-.222.349-.271.546-.069.08.083.4.4.646.641a.38.38,0,0,0,.536,0l.742-.742a.249.249,0,0,0,0-.352l-1.635-1.63c-.474-.472-.793-.368-1.335.31A14.317,14.317,0,0,1,.575,75.978c-.814.639-.765,1,.154,1.668A9.376,9.376,0,0,1,2.844,79.76c.54.757.9.909,1.373.443.706-.7,1.413-1.4,2.107-2.112a.713.713,0,0,1,.487-.236H9.778c2.149,0,4.585,0,5.562,0h2.293a1.091,1.091,0,0,0,1.091-1.112A1.115,1.115,0,0,0,17.6,75.67" transform="translate(-52.774 -39.775) rotate(-45)" fill="#f9b133"/>
    <path id="Path_203" data-name="Path 203" d="M231.016,26.155,229.2,27.983l1.284.016.476-.48.432.491,1.265.015Z" transform="translate(-174.45 146.354) rotate(-45)" fill="#4e2a83"/>
  </g>
</svg>
