<svg width="79" height="80" viewBox="0 0 79 80" fill="none" xmlns="http://www.w3.org/2000/svg">
<g clip-path="url(#clip0_768_245)">
<path d="M31.0854 42.1156L22.2824 37.2412L13.4795 42.1156V24.6046H31.0854V42.1156Z" fill="#FFD400"/>
<path d="M67.466 59.8591L60.0522 55.7539L52.6384 59.8591V45.1115H67.466V59.8591Z" fill="#FFD400"/>
<path d="M61.3822 28.4685L55.4894 24.3632L49.5966 28.4685V10.1216H61.3822V28.4685Z" fill="#FFD400"/>
<path d="M24.5554 54.9122H8.22249C7.37451 54.9122 6.68713 55.5995 6.68713 56.4475C6.68713 57.2955 7.37451 57.9829 8.22249 57.9829H24.5556C25.4036 57.9829 26.0909 57.2955 26.0909 56.4475C26.0909 55.5995 25.4034 54.9122 24.5554 54.9122Z" fill="#665AF0"/>
<path d="M77.4161 43.5762H69.8258V10.1216C69.8258 9.27359 69.1382 8.58621 68.2904 8.58621H42.6882C41.8404 8.58621 41.1529 9.27359 41.1529 10.1216V23.0692H1.87666C1.02869 23.0692 0.341309 23.7566 0.341309 24.6046V70.4214C0.341309 71.2694 1.02869 71.9567 1.87666 71.9567H77.4161C78.2639 71.9567 78.9515 71.2694 78.9515 70.4214V45.1115C78.9515 44.2635 78.2639 43.5762 77.4161 43.5762ZM44.2236 11.6569H66.7551V43.5762H44.2236V11.6569ZM3.41202 51.6288H29.55V61.2661H3.41202V51.6288ZM3.41202 64.3368H31.0854C31.9334 64.3368 32.6208 63.6494 32.6208 62.8014V50.0934C32.6208 49.2455 31.9334 48.5581 31.0854 48.5581H3.41202V26.1399H41.1529V68.886H3.41202V64.3368ZM75.8807 68.886H44.2236V46.6469H75.8807V68.886Z" fill="#665AF0"/>
</g>
<defs>
<clipPath id="clip0_768_245">
<rect width="78.6101" height="78.6101" fill="white" transform="translate(0.341309 0.9664)"/>
</clipPath>
</defs>
</svg>
