<svg width="80" height="80" viewBox="0 0 80 80" fill="none" xmlns="http://www.w3.org/2000/svg">
<g clip-path="url(#clip0_769_307)">
<path d="M39.8471 70.8324C54.6062 70.8324 66.5707 58.8686 66.5707 44.1105C66.5707 29.3525 54.6062 17.3887 39.8471 17.3887C25.0881 17.3887 13.1235 29.3525 13.1235 44.1105C13.1235 58.8686 25.0881 70.8324 39.8471 70.8324Z" fill="#FFD400"/>
<path d="M69.9603 19.2814H73.0036C73.847 19.2814 74.5307 18.5976 74.5307 17.7544C74.5307 16.9113 73.847 16.2275 73.0036 16.2275H66.4983C65.7299 16.2275 65.0537 16.8122 64.978 17.6117C63.9827 28.2473 64.5868 21.7943 64.3693 24.117C64.2907 24.9567 64.9076 25.701 65.7475 25.7795C65.7957 25.7841 65.844 25.7864 65.8915 25.7864C66.6707 25.7864 67.3361 25.1927 67.41 24.4016L67.6971 21.3346C78.4522 34.2974 78.9039 53.2317 68.3516 66.7024C67.8315 67.3665 67.948 68.3261 68.6121 68.8461C69.2758 69.3662 70.2361 69.2495 70.7558 68.5856C82.2286 53.9397 81.7076 33.3407 69.9603 19.2814Z" fill="#665AF0"/>
<path d="M14.2124 62.125C13.3735 62.0452 12.6283 62.6633 12.5498 63.503L12.2625 66.5703C1.50774 53.6073 1.05603 34.6727 11.6083 21.2022C12.1285 20.5381 12.0119 19.5784 11.3478 19.0585C10.6843 18.5385 9.7241 18.6549 9.20413 19.319C-2.26884 33.9647 -1.74781 54.5637 9.99942 68.6232H6.95614C6.1129 68.6232 5.42908 69.3068 5.42908 70.1501C5.42908 70.9933 6.1129 71.6771 6.95614 71.6771H13.4614C14.2538 71.6771 14.9106 71.0671 14.9816 70.2929C15.9206 60.2626 15.4567 65.2173 15.5906 63.7876C15.6691 62.9481 15.0522 62.2037 14.2124 62.125Z" fill="#665AF0"/>
<path d="M51.2352 39.441H43.1905L47.7854 26.4122C48.0309 25.7157 47.7431 24.9435 47.1016 24.5777C46.4599 24.2117 45.6487 24.3576 45.1746 24.9237L27.554 45.9557C26.7235 46.9473 27.4295 48.4633 28.7246 48.4633H36.7696L32.1744 61.4923C31.9288 62.1887 32.2167 62.9609 32.8582 63.3268C33.4985 63.6919 34.31 63.548 34.7852 62.9807L52.4058 41.9485C52.7867 41.4937 52.8699 40.8595 52.619 40.3222C52.3679 39.7845 51.8283 39.441 51.2352 39.441ZM37.8593 54.5557L40.3675 47.4444C40.7171 46.4529 39.9815 45.4095 38.9274 45.4095H31.996L42.1006 33.3485L39.5925 40.4602C39.243 41.4517 39.9786 42.495 41.0327 42.495H47.9637L37.8593 54.5557Z" fill="#665AF0"/>
</g>
<defs>
<clipPath id="clip0_769_307">
<rect width="78.1856" height="78.1804" fill="white" transform="translate(0.887207 0.834595)"/>
</clipPath>
</defs>
</svg>
