<svg width="79" height="79" viewBox="0 0 79 79" fill="none" xmlns="http://www.w3.org/2000/svg">
<g clip-path="url(#clip0_769_256)">
<path d="M67.652 0.0683594H11.5837C9.06226 0.0683594 7.01111 2.11953 7.01111 4.64054V73.6764C7.01111 76.1976 9.06241 78.2486 11.5837 78.2486H67.652C70.1735 78.2486 72.2246 76.1974 72.2246 73.6764V4.64054C72.2246 2.11953 70.1735 0.0683594 67.652 0.0683594V0.0683594ZM69.1705 73.6766C69.1705 74.5137 68.4893 75.1948 67.652 75.1948H11.5837C10.7465 75.1948 10.0652 74.5137 10.0652 73.6766V4.64054C10.0652 3.80331 10.7465 3.12228 11.5837 3.12228H67.652C68.4893 3.12228 69.1705 3.80346 69.1705 4.64054V73.6766Z" fill="#665AF0"/>
<path d="M62.5504 14.6901C60.1351 14.6901 58.17 12.7252 58.17 10.3102C58.17 9.46682 57.4862 8.7832 56.643 8.7832H22.5928C21.7494 8.7832 21.0658 9.46698 21.0658 10.3102C21.0658 12.7252 19.1007 14.6901 16.6854 14.6901C15.842 14.6901 15.1583 15.3739 15.1583 16.2171V62.1001C15.1583 62.9433 15.842 63.6271 16.6854 63.6271C19.1007 63.6271 21.0658 65.592 21.0658 68.0072C21.0658 68.8503 21.7494 69.5341 22.5928 69.5341H56.6428C57.4861 69.5341 58.1699 68.8503 58.1699 68.0072C58.1699 65.5921 60.1349 63.6271 62.5503 63.6271C63.3935 63.6271 64.0773 62.9433 64.0773 62.1001V16.2171C64.0775 15.3737 63.3937 14.6901 62.5504 14.6901ZM61.0234 60.7307C58.1468 61.3334 55.8764 63.6037 55.2735 66.48H23.9623C23.3596 63.6037 21.0891 61.3334 18.2126 60.7307V17.5864C21.0891 16.9837 23.3596 14.7135 23.9623 11.8371H55.2734C55.8762 14.7135 58.1467 16.9837 61.0232 17.5864V60.7307H61.0234Z" fill="#665AF0"/>
<path d="M24.4121 28.0637H54.8234V35.986H24.4121V28.0637Z" fill="#FFD400"/>
<path d="M26.9854 35.986H52.2501V55.3231H26.9854V35.986Z" fill="#FFD400"/>
<path d="M47.9874 28.0637C48.028 27.8254 48.0491 27.5807 48.0491 27.331C48.0491 24.9357 46.1071 22.9938 43.7116 22.9938C41.3161 22.9938 39.3741 24.9357 39.3741 27.331C39.3741 27.5807 39.3954 27.8254 39.4358 28.0637H47.9874Z" fill="#FFD400"/>
<path d="M39.7998 28.0637C39.8402 27.8254 39.8615 27.5807 39.8615 27.331C39.8615 24.9357 37.9195 22.9938 35.524 22.9938C33.1285 22.9938 31.1865 24.9357 31.1865 27.331C31.1865 27.5807 31.2077 27.8254 31.2482 28.0637H39.7998Z" fill="#FFD400"/>
</g>
<defs>
<clipPath id="clip0_769_256">
<rect width="78.1856" height="78.1804" fill="white" transform="translate(0.525024 0.0683594)"/>
</clipPath>
</defs>
</svg>
