<svg width="80" height="80" viewBox="0 0 80 80" fill="none" xmlns="http://www.w3.org/2000/svg">
<g clip-path="url(#clip0_768_341)">
<path d="M7.23181 26.5469H13.9352V55.1586H7.23181V26.5469Z" fill="#FFD400"/>
<path d="M26.9773 26.5469H33.6807V55.1586H26.9773V26.5469Z" fill="#FFD400"/>
<path d="M46.7228 26.5469H53.4261V55.1586H46.7228V26.5469Z" fill="#FFD400"/>
<path d="M66.4684 26.5469H73.1717V55.1586H66.4684V26.5469Z" fill="#FFD400"/>
<path d="M3.60454 18.7298C3.01266 18.9561 2.62268 19.5254 2.62575 20.1591V20.1734V26.5468C2.62575 27.3948 3.31313 28.0821 4.1611 28.0821H76.2425C77.0904 28.0821 77.7778 27.3948 77.7778 26.5468V20.1734C77.7778 20.1728 77.7778 20.1721 77.7778 20.1714C77.782 19.5417 77.3993 18.9726 76.8158 18.7364C76.8049 18.732 76.7966 18.7288 76.7913 18.7268L40.7772 4.16944C40.4081 4.02036 39.9955 4.02036 39.6264 4.16944L3.61222 18.7268L3.60454 18.7298ZM74.7069 25.0116H5.69646V21.6964H74.7071V25.0116H74.7069ZM40.2017 7.24891L68.3471 18.6257H12.0564L40.2017 7.24891Z" fill="#665AF0"/>
<path d="M77.9714 60.5106H77.7776V55.1586C77.7776 54.3107 77.0903 53.6232 76.2423 53.6232H63.3977C62.5497 53.6232 61.8623 54.3107 61.8623 55.1586V60.5106H58.0322V55.1586C58.0322 54.3107 57.3448 53.6232 56.4969 53.6232H43.6521C42.8041 53.6232 42.1167 54.3107 42.1167 55.1586V60.5106H38.2866V55.1586C38.2866 54.3107 37.5993 53.6232 36.7513 53.6232H23.9065C23.0585 53.6232 22.3711 54.3107 22.3711 55.1586V60.5106H18.5411V55.1586C18.5411 54.3107 17.8537 53.6232 17.0057 53.6232H4.16108C3.3131 53.6232 2.62572 54.3107 2.62572 55.1586V60.5106H2.43196C1.58398 60.5106 0.896606 61.1982 0.896606 62.046V74.7127C0.896606 75.5605 1.58398 76.248 2.43196 76.248H77.9714C78.8194 76.248 79.5068 75.5605 79.5068 74.7127V62.046C79.5068 61.198 78.8194 60.5106 77.9714 60.5106ZM3.96732 63.5814H76.436V66.844H3.96732V63.5814ZM64.933 56.6938H74.7069V60.5105H64.933V56.6938ZM45.1874 56.6938H54.9615V60.5105H45.1874V56.6938ZM25.4419 56.6938H35.2159V60.5105H25.4419V56.6938ZM5.69643 56.6938H15.4703V60.5105H5.69643V56.6938ZM76.436 73.1773H3.96732V69.9147H76.436V73.1773Z" fill="#665AF0"/>
</g>
<defs>
<clipPath id="clip0_768_341">
<rect width="78.6101" height="78.6101" fill="white" transform="translate(0.896606 0.847702)"/>
</clipPath>
</defs>
</svg>
