<svg width="79" height="80" viewBox="0 0 79 80" fill="none" xmlns="http://www.w3.org/2000/svg">
<g clip-path="url(#clip0_769_207)">
<path d="M69.7262 21.253H67.6276C66.8142 21.253 66.1548 21.9041 66.1548 22.7073C66.1548 23.5105 66.8142 24.1616 67.6276 24.1616H69.7262C71.8375 24.1616 73.5553 25.8579 73.5553 27.9429V54.7023H4.0425V27.9429C4.0425 25.8579 5.76029 24.1616 7.8716 24.1616H46.9387C47.7521 24.1616 48.4114 23.5105 48.4114 22.7073C48.4114 21.9041 47.7521 21.253 46.9387 21.253H7.8716C4.13617 21.253 1.09705 24.2541 1.09705 27.9429V59.647C1.09705 63.3358 4.13617 66.3369 7.8716 66.3369H33.6293V72.1542H29.1871C28.3737 72.1542 27.7144 72.8053 27.7144 73.6085C27.7144 74.4117 28.3737 75.0628 29.1871 75.0628H48.4107C49.2241 75.0628 49.8834 74.4117 49.8834 73.6085C49.8834 72.8053 49.2241 72.1542 48.4107 72.1542H43.9685V66.3369H69.7262C73.4616 66.3369 76.5008 63.3358 76.5008 59.647V27.9429C76.5008 24.2541 73.4616 21.253 69.7262 21.253ZM41.023 72.1542H36.5748V66.3369H41.023V72.1542ZM69.7262 63.4283H7.8716C5.76029 63.4283 4.0425 61.7319 4.0425 59.647V57.611H73.5553V59.647C73.5553 61.7319 71.8375 63.4283 69.7262 63.4283Z" fill="#665AF0"/>
<path d="M17.3148 47.4304C18.1282 47.4304 18.7875 46.7793 18.7875 45.9761V34.3415H21.7509C22.5643 34.3415 23.2237 33.6904 23.2237 32.8872C23.2237 32.084 22.5643 31.4329 21.7509 31.4329H12.8785C12.0651 31.4329 11.4058 32.084 11.4058 32.8872C11.4058 33.6904 12.0651 34.3415 12.8785 34.3415H15.8421V45.9761C15.8421 46.7793 16.5014 47.4304 17.3148 47.4304Z" fill="#665AF0"/>
<path d="M36.6463 32.3587L32.8425 41.9783L29.0388 32.3587C28.743 31.6106 27.8889 31.2406 27.1313 31.533C26.3736 31.8251 25.9993 32.6685 26.2951 33.4166L31.4707 46.5055C31.6913 47.0635 32.2359 47.4308 32.8425 47.4308C33.4491 47.4308 33.9938 47.0635 34.2144 46.5055L39.39 33.4166C39.6858 32.6683 39.3115 31.8251 38.5538 31.533C37.7962 31.2408 36.9422 31.6105 36.6463 32.3587Z" fill="#665AF0"/>
<path d="M46.938 39.2857V11.9445C46.938 9.05303 49.3117 6.70895 52.2398 6.70895H62.3265C65.2546 6.70895 67.6283 9.05303 67.6283 11.9445V39.2857C67.6283 42.1772 65.2546 44.5213 62.3265 44.5213H52.2398C49.3117 44.5213 46.938 42.1772 46.938 39.2857Z" fill="#FFD400"/>
<path d="M54.3248 15.4343C54.7121 15.4343 55.0921 15.2787 55.366 15.0082C55.6399 14.7377 55.7975 14.3624 55.7975 13.98C55.7975 13.5975 55.6399 13.2223 55.366 12.9518C55.0921 12.6812 54.7121 12.5256 54.3248 12.5256C53.9375 12.5256 53.5575 12.6812 53.2836 12.9518C53.0096 13.2223 52.8521 13.5975 52.8521 13.98C52.8521 14.3624 53.0096 14.7377 53.2836 15.0082C53.5575 15.2787 53.9375 15.4343 54.3248 15.4343Z" fill="#665AF0"/>
<path d="M60.2402 15.4343C60.6275 15.4343 61.0075 15.2787 61.2814 15.0082C61.5553 14.7377 61.7129 14.3624 61.7129 13.98C61.7129 13.5975 61.5553 13.2223 61.2814 12.9518C61.0075 12.6812 60.6275 12.5256 60.2402 12.5256C59.8529 12.5256 59.4729 12.6812 59.199 12.9518C58.925 13.2223 58.7675 13.5975 58.7675 13.98C58.7675 14.3624 58.925 14.7377 59.199 15.0082C59.4729 15.2787 59.8529 15.4343 60.2402 15.4343Z" fill="#665AF0"/>
<path d="M54.3248 21.2513C54.7121 21.2513 55.0921 21.0957 55.366 20.8252C55.6399 20.5547 55.7975 20.1795 55.7975 19.797C55.7975 19.4145 55.6399 19.0393 55.366 18.7688C55.0921 18.4983 54.7121 18.3427 54.3248 18.3427C53.936 18.3427 53.5575 18.4983 53.2836 18.7688C53.0096 19.0393 52.8521 19.4145 52.8521 19.797C52.8521 20.1795 53.0096 20.5547 53.2836 20.8252C53.5575 21.0957 53.9375 21.2513 54.3248 21.2513Z" fill="#665AF0"/>
<path d="M60.2402 21.2513C60.6275 21.2513 61.0075 21.0957 61.2814 20.8252C61.5553 20.5547 61.7129 20.1795 61.7129 19.797C61.7129 19.4145 61.5553 19.0393 61.2814 18.7688C61.0075 18.4983 60.6275 18.3427 60.2402 18.3427C59.8529 18.3427 59.4729 18.4983 59.199 18.7688C58.925 19.0393 58.7675 19.4145 58.7675 19.797C58.7675 20.1795 58.925 20.5547 59.199 20.8252C59.4729 21.0957 59.8529 21.2513 60.2402 21.2513Z" fill="#665AF0"/>
<path d="M54.3248 27.0696C54.7121 27.0696 55.0921 26.914 55.366 26.6435C55.6399 26.373 55.7975 25.9978 55.7975 25.6153C55.7975 25.2328 55.6399 24.8576 55.366 24.5871C55.0921 24.3166 54.7121 24.1609 54.3248 24.1609C53.9375 24.1609 53.5575 24.3166 53.2836 24.5871C53.0096 24.8576 52.8521 25.2328 52.8521 25.6153C52.8521 25.9978 53.0096 26.373 53.2836 26.6435C53.5575 26.914 53.9375 27.0696 54.3248 27.0696Z" fill="#665AF0"/>
<path d="M60.2402 27.0696C60.6275 27.0696 61.0075 26.914 61.2814 26.6435C61.5553 26.373 61.7129 25.9978 61.7129 25.6153C61.7129 25.2328 61.5553 24.8576 61.2814 24.5871C61.0075 24.3166 60.629 24.1609 60.2402 24.1609C59.8529 24.1609 59.4729 24.3166 59.199 24.5871C58.925 24.8576 58.7675 25.2328 58.7675 25.6153C58.7675 25.9978 58.925 26.373 59.199 26.6435C59.4729 26.914 59.8529 27.0696 60.2402 27.0696Z" fill="#665AF0"/>
<path d="M54.3249 35.7953H55.8097V37.2496C55.8097 38.0528 56.4691 38.7039 57.2825 38.7039C58.0958 38.7039 58.7552 38.0528 58.7552 37.2496V35.7953H60.24C61.0534 35.7953 61.7127 35.1442 61.7127 34.341C61.7127 33.5378 61.0534 32.8867 60.24 32.8867H58.755V31.4323C58.755 30.6291 58.0957 29.978 57.2823 29.978C56.4689 29.978 55.8096 30.6291 55.8096 31.4323V32.8867H54.3248C53.5114 32.8867 52.8521 33.5378 52.8521 34.341C52.8521 35.1442 53.5115 35.7953 54.3249 35.7953Z" fill="#665AF0"/>
</g>
<defs>
<clipPath id="clip0_769_207">
<rect width="78.6101" height="78.6101" fill="white" transform="translate(0.0748291 0.918427)"/>
</clipPath>
</defs>
</svg>
