<svg width="79" height="73" viewBox="0 0 79 73" fill="none" xmlns="http://www.w3.org/2000/svg">
<path d="M8.14856 15.8937H71.6777V24.7962H8.14856V15.8937Z" fill="#FFD400"/>
<path d="M17.3275 34.4314H29.2499V46.9373H17.3275V34.4314Z" fill="#FFD400"/>
<path d="M40.6387 40.3855H62.4988V46.9375H40.6387V40.3855Z" fill="#FFD400"/>
<path d="M77.9749 31.9495C77.4883 30.1336 76.3215 28.6161 74.6892 27.677L73.2045 26.8225V12.8555C73.2045 8.97557 70.0476 5.81889 66.1674 5.81889H36.7073L29.2303 1.51599C25.8673 -0.419333 21.5508 0.734225 19.6083 4.08756L18.6056 5.81889H13.6586C9.7784 5.81889 6.62152 8.97557 6.62152 12.8555V26.5089L0.979322 36.2498C0.0383962 37.8745 -0.212487 39.7676 0.273399 41.5803C0.760048 43.3962 1.92681 44.9136 3.55916 45.8528L6.62167 47.6153V49.9757C6.62167 53.8556 9.77856 57.0123 13.6588 57.0123H22.9506L49.018 72.0138C50.124 72.6502 51.3329 72.9527 52.5269 72.9527C54.9632 72.9527 57.3364 71.6928 58.64 69.4422L65.8397 57.0125H66.1677C70.0479 57.0125 73.2048 53.8558 73.2048 49.9758V44.2969L77.2692 37.28C78.2099 35.6552 78.4608 33.7622 77.9749 31.9495ZM22.2512 5.61811C23.3521 3.7176 25.7997 3.06501 27.707 4.16268L30.5849 5.81889H22.1349L22.2512 5.61811ZM5.08248 43.2061C4.15865 42.6744 3.49838 41.8163 3.22322 40.7898C2.94898 39.7665 3.09068 38.6977 3.62192 37.7803L6.62152 32.6018V44.0919L5.08248 43.2061ZM55.9972 67.9117C54.8964 69.812 52.4487 70.4648 50.5415 69.3671L29.0729 57.0123H62.3102L55.9972 67.9117ZM70.1507 49.9757C70.1507 52.1718 68.3638 53.9586 66.1676 53.9586H13.6586C11.4622 53.9586 9.67548 52.1718 9.67548 49.9757V12.8555C9.67548 10.6594 11.4622 8.87265 13.6586 8.87265H66.1676C68.3638 8.87265 70.1507 10.6594 70.1507 12.8555V49.9757ZM74.6264 35.7494L73.2047 38.2039V30.3463C74.1082 30.8794 74.7539 31.7279 75.0251 32.7399C75.2994 33.7631 75.1577 34.8319 74.6264 35.7494Z" fill="#665AF0"/>
<path d="M62.4987 32.9045H52.7903C51.9471 32.9045 51.2633 33.5881 51.2633 34.4314C51.2633 35.2747 51.9471 35.9583 52.7903 35.9583H62.4987C63.3419 35.9583 64.0257 35.2747 64.0257 34.4314C64.0257 33.5881 63.3419 32.9045 62.4987 32.9045Z" fill="#665AF0"/>
</svg>
