<svg width="60" height="60" viewBox="0 0 60 60" fill="none" xmlns="http://www.w3.org/2000/svg">
<rect y="60" width="60" height="60" rx="20" transform="rotate(-90 0 60)" fill="#E5DDF3"/>
<path fill-rule="evenodd" clip-rule="evenodd" d="M19.25 24C19.25 21.929 20.9289 20.25 23 20.25L28.3255 20.25C29.119 20.2498 29.6665 20.2496 30.1706 20.3928C30.8406 20.5831 31.4442 20.9562 31.9141 21.4703C32.2676 21.8571 32.5123 22.3469 32.8669 23.0567L32.9635 23.2501H35.5266C36.203 23.2501 36.7485 23.2501 37.1925 23.2803C37.6491 23.3115 38.0528 23.3772 38.4351 23.5355C39.3539 23.9161 40.0839 24.6461 40.4645 25.565C40.6229 25.9473 40.6886 26.351 40.7197 26.8075C40.75 27.2515 40.75 27.7971 40.75 28.4734V34.5267C40.75 34.5427 40.75 34.5587 40.75 34.5746V35.0001C40.75 35.0096 40.7498 35.0191 40.7495 35.0285C40.748 35.48 40.7421 35.8641 40.7197 36.1926C40.6886 36.6491 40.6229 37.0528 40.4645 37.4351C40.0839 38.354 39.3539 39.084 38.4351 39.4646C38.0528 39.623 37.6491 39.6886 37.1925 39.7198C36.7486 39.7501 36.2031 39.7501 35.5268 39.7501H24.4734C23.7972 39.7501 23.2514 39.7501 22.8075 39.7198C22.3509 39.6886 21.9472 39.623 21.5649 39.4646C20.6461 39.084 19.9161 38.354 19.5355 37.4351C19.3771 37.0528 19.3114 36.6491 19.2803 36.1926C19.25 35.7486 19.25 35.203 19.25 34.5267V24ZM29.7607 21.8357C29.4833 21.7569 29.1603 21.75 28.2188 21.75H23C22.0203 21.75 21.1869 22.3762 20.878 23.25H31.2833C31.0668 22.831 30.9485 22.6372 30.8068 22.4822C30.5249 22.1737 30.1627 21.9499 29.7607 21.8357ZM39.25 34.2501V30.7501H35.5C34.5335 30.7501 33.75 31.5336 33.75 32.5001C33.75 33.4666 34.5335 34.2501 35.5 34.2501H39.25ZM39.25 29.2501H35.5C33.7051 29.2501 32.25 30.7051 32.25 32.5001C32.25 34.295 33.7051 35.7501 35.5 35.7501H39.2394C39.2356 35.8728 39.2303 35.9856 39.2232 36.0905C39.1973 36.4707 39.1487 36.6921 39.0787 36.8611C38.8504 37.4124 38.4124 37.8504 37.861 38.0788C37.692 38.1488 37.4706 38.1973 37.0904 38.2233C36.7035 38.2497 36.2092 38.2501 35.5 38.2501H24.5C23.7908 38.2501 23.2965 38.2497 22.9096 38.2233C22.5294 38.1973 22.308 38.1488 22.139 38.0788C21.5876 37.8504 21.1496 37.4124 20.9213 36.8611C20.8513 36.6921 20.8027 36.4707 20.7768 36.0905C20.7504 35.7036 20.75 35.2092 20.75 34.5001V24.7501H35.5C36.2092 24.7501 36.7035 24.7505 37.0904 24.7769C37.4706 24.8028 37.692 24.8513 37.861 24.9213C38.4124 25.1497 38.8504 25.5877 39.0787 26.139C39.1487 26.3081 39.1973 26.5295 39.2232 26.9096C39.2496 27.2966 39.25 27.7909 39.25 28.5001V29.2501Z" fill="#0D0B4E"/>
</svg>
