<svg width="60" height="60" viewBox="0 0 60 60" fill="none" xmlns="http://www.w3.org/2000/svg">
<rect y="60" width="60" height="60" rx="20" transform="rotate(-90 0 60)" fill="#E5DDF3"/>
<path d="M31.75 32C31.75 32.6981 31.3412 33.3007 30.75 33.5816V35C30.75 35.4142 30.4142 35.75 30 35.75C29.5858 35.75 29.25 35.4142 29.25 35V33.5816C28.6588 33.3007 28.25 32.6981 28.25 32C28.25 31.0335 29.0335 30.25 30 30.25C30.9665 30.25 31.75 31.0335 31.75 32Z" fill="#0D0B4E"/>
<path fill-rule="evenodd" clip-rule="evenodd" d="M30 19.25C28.475 19.25 27.0125 19.8558 25.9341 20.9341C24.8558 22.0125 24.25 23.475 24.25 25C24.25 25.0909 24.2662 25.1781 24.2958 25.2587C24.1206 25.2632 23.9582 25.27 23.8075 25.2803C23.3509 25.3114 22.9472 25.3771 22.5649 25.5355C21.6461 25.9161 20.9161 26.6461 20.5355 27.5649C20.3771 27.9472 20.3114 28.3509 20.2803 28.8075C20.25 29.2515 20.25 29.797 20.25 30.4734V35.5266C20.25 36.203 20.25 36.7485 20.2803 37.1925C20.3114 37.6491 20.3771 38.0528 20.5355 38.4351C20.9161 39.3539 21.6461 40.0839 22.5649 40.4645C22.9472 40.6229 23.3509 40.6886 23.8075 40.7197C24.2515 40.75 24.797 40.75 25.4734 40.75H34.5266C35.203 40.75 35.7485 40.75 36.1925 40.7197C36.6491 40.6886 37.0528 40.6229 37.4351 40.4645C38.3539 40.0839 39.0839 39.3539 39.4645 38.4351C39.6229 38.0528 39.6886 37.6491 39.7197 37.1925C39.75 36.7485 39.75 36.203 39.75 35.5266V30.4734C39.75 29.797 39.75 29.2515 39.7197 28.8075C39.6886 28.3509 39.6229 27.9472 39.4645 27.5649C39.0839 26.6461 38.3539 25.9161 37.4351 25.5355C37.0528 25.3771 36.6491 25.3114 36.1925 25.2803C36.0418 25.27 35.8794 25.2632 35.7042 25.2587C35.7338 25.1781 35.75 25.0909 35.75 25C35.75 23.475 35.1442 22.0125 34.0659 20.9341C32.9875 19.8558 31.525 19.25 30 19.25ZM34.2927 25.25C34.265 25.1718 34.25 25.0877 34.25 25C34.25 23.8728 33.8022 22.7918 33.0052 21.9948C32.2082 21.1978 31.1272 20.75 30 20.75C28.8728 20.75 27.7918 21.1978 26.9948 21.9948C26.1978 22.7918 25.75 23.8728 25.75 25C25.75 25.0877 25.735 25.1718 25.7073 25.25H34.2927ZM23.9096 26.7768C23.5294 26.8027 23.308 26.8513 23.139 26.9213C22.5876 27.1496 22.1496 27.5876 21.9213 28.139C21.8513 28.308 21.8027 28.5294 21.7768 28.9096C21.7504 29.2965 21.75 29.7908 21.75 30.5V35.5C21.75 36.2092 21.7504 36.7035 21.7768 37.0904C21.8027 37.4706 21.8513 37.692 21.9213 37.861C22.1496 38.4123 22.5876 38.8504 23.139 39.0787C23.308 39.1487 23.5294 39.1973 23.9096 39.2232C24.2965 39.2496 24.7908 39.25 25.5 39.25H34.5C35.2092 39.25 35.7035 39.2496 36.0904 39.2232C36.4706 39.1973 36.692 39.1487 36.861 39.0787C37.4124 38.8504 37.8504 38.4123 38.0787 37.861C38.1487 37.692 38.1973 37.4706 38.2232 37.0904C38.2496 36.7035 38.25 36.2092 38.25 35.5V30.5C38.25 29.7908 38.2496 29.2965 38.2232 28.9096C38.1973 28.5294 38.1487 28.308 38.0787 28.139C37.8504 27.5876 37.4124 27.1496 36.861 26.9213C36.692 26.8513 36.4706 26.8027 36.0904 26.7768C35.7035 26.7504 35.2092 26.75 34.5 26.75H25.5C24.7908 26.75 24.2965 26.7504 23.9096 26.7768Z" fill="#0D0B4E"/>
</svg>
